<svg xmlns="http://www.w3.org/2000/svg" width="22" height="22" viewBox="0 0 28 28">
  <g id="town_icon" transform="translate(8489 1334.172)">
    <rect id="Rectangle_3000" data-name="Rectangle 3000" width="28" height="28" transform="translate(-8489 -1334.172)" fill="#fff" opacity="0"/>
    <path id="Path_27208" data-name="Path 27208" d="M14.728,272.13a.23.23,0,0,0-.232.23v7.146H9.425V274.9a.231.231,0,0,0-.231-.231H5.967s0,0,0,0v-2.3a.231.231,0,1,0-.461,0v2.3s0,0,0,0H4.123a.23.23,0,0,0-.231.23v8.3H1.818a.23.23,0,0,0-.231.23v8.759a.231.231,0,0,0,.23.23H21.641a.231.231,0,0,0,.231-.23V273.81a.231.231,0,0,0-.183-.226l-6.915-1.451a.235.235,0,0,0-.046-.005Zm.229.514L21.411,274v17.955h-4.38V279.737a.231.231,0,0,0-.23-.231H14.957Zm-10.6,2.482h4.61v4.38H7.12a.231.231,0,0,0-.231.23v3.457H4.354Zm3,4.841h9.22v11.986H7.35Zm1.614,1.383a.23.23,0,0,0-.231.23v2.305a.231.231,0,0,0,.231.231h2.305a.231.231,0,0,0,.231-.23V281.58a.231.231,0,0,0-.231-.231Zm3.688,0a.23.23,0,0,0-.231.23v2.305a.231.231,0,0,0,.231.231h2.305a.231.231,0,0,0,.231-.23V281.58a.231.231,0,0,0-.23-.23Zm-3.458.461h1.844v1.844H9.194Zm3.688,0h1.844v1.844H12.882ZM2.049,283.655H6.889v8.3H2.049Zm6.915,1.383a.231.231,0,0,0-.231.23v2.3a.231.231,0,0,0,.23.231h2.305a.231.231,0,0,0,.231-.23v-2.3a.231.231,0,0,0-.231-.231Zm3.688,0a.231.231,0,0,0-.231.23v2.3a.231.231,0,0,0,.23.231h2.305a.231.231,0,0,0,.231-.23v-2.3a.231.231,0,0,0-.231-.231Zm-3.458.461h1.844v1.844H9.194Zm3.688,0h1.844v1.844H12.882Z" transform="translate(-8487 -1602.301)" fill="#394255" stroke="#394255" stroke-width="0.4"/>
  </g>
</svg>
