<svg xmlns="http://www.w3.org/2000/svg" width="15.851" height="19.024" viewBox="0 0 15.851 19.024"><defs><style>.a{fill:#3a9ced;}</style></defs><g transform="translate(-5 -2.998)"><g transform="translate(5 2.998)"><path class="a" d="M9.348,1034.36A1.359,1.359,0,0,0,8,1035.713v13.153a1.356,1.356,0,0,0,1.348,1.348h9.985a1.356,1.356,0,0,0,1.348-1.348v-13.153a1.356,1.356,0,0,0-1.348-1.348Zm0,1.028h9.985a.31.31,0,0,1,.32.322v13.153a.31.31,0,0,1-.32.322H9.348a.31.31,0,0,1-.32-.322V1035.71A.31.31,0,0,1,9.348,1035.388Z" transform="translate(-4.83 -1031.19)"/><path class="a" d="M6.348,1031.36A1.359,1.359,0,0,0,5,1032.713v13.153a1.356,1.356,0,0,0,1.348,1.348H7.642v-1.026H6.348a.31.31,0,0,1-.32-.322v-13.153a.31.31,0,0,1,.32-.322h9.985a.31.31,0,0,1,.32.322V1034h1.028v-1.292a1.356,1.356,0,0,0-1.348-1.348Z" transform="translate(-5 -1031.36)"/></g></g></svg>